<svg width="70" height="70" viewBox="0 0 70 70" fill="none" xmlns="http://www.w3.org/2000/svg">
<path d="M35 5.83337C36.5471 5.83337 38.0308 6.44796 39.1247 7.54192C40.2187 8.63588 40.8333 10.1196 40.8333 11.6667C40.8333 13.825 39.6666 15.7209 37.9166 16.7125V20.4167H40.8333C46.2481 20.4167 51.4412 22.5677 55.2701 26.3966C59.0989 30.2255 61.25 35.4185 61.25 40.8334H64.1666C64.9402 40.8334 65.682 41.1407 66.229 41.6876C66.776 42.2346 67.0833 42.9765 67.0833 43.75V52.5C67.0833 53.2736 66.776 54.0155 66.229 54.5624C65.682 55.1094 64.9402 55.4167 64.1666 55.4167H61.25V58.3334C61.25 59.8805 60.6354 61.3642 59.5414 62.4582C58.4474 63.5521 56.9637 64.1667 55.4166 64.1667H14.5833C13.0362 64.1667 11.5525 63.5521 10.4585 62.4582C9.36454 61.3642 8.74996 59.8805 8.74996 58.3334V55.4167H5.83329C5.05974 55.4167 4.31788 55.1094 3.7709 54.5624C3.22392 54.0155 2.91663 53.2736 2.91663 52.5V43.75C2.91663 42.9765 3.22392 42.2346 3.7709 41.6876C4.31788 41.1407 5.05974 40.8334 5.83329 40.8334H8.74996C8.74996 35.4185 10.901 30.2255 14.7299 26.3966C18.5587 22.5677 23.7518 20.4167 29.1666 20.4167H32.0833V16.7125C30.3333 15.7209 29.1666 13.825 29.1666 11.6667C29.1666 10.1196 29.7812 8.63588 30.8752 7.54192C31.9691 6.44796 33.4529 5.83337 35 5.83337ZM21.875 37.9167C19.9411 37.9167 18.0864 38.6849 16.719 40.0524C15.3515 41.4198 14.5833 43.2745 14.5833 45.2084C14.5833 47.1422 15.3515 48.9969 16.719 50.3644C18.0864 51.7318 19.9411 52.5 21.875 52.5C23.8088 52.5 25.6635 51.7318 27.0309 50.3644C28.3984 48.9969 29.1666 47.1422 29.1666 45.2084C29.1666 43.2745 28.3984 41.4198 27.0309 40.0524C25.6635 38.6849 23.8088 37.9167 21.875 37.9167ZM48.125 37.9167C46.1911 37.9167 44.3364 38.6849 42.969 40.0524C41.6015 41.4198 40.8333 43.2745 40.8333 45.2084C40.8333 47.1422 41.6015 48.9969 42.969 50.3644C44.3364 51.7318 46.1911 52.5 48.125 52.5C50.0588 52.5 51.9135 51.7318 53.2809 50.3644C54.6484 48.9969 55.4166 47.1422 55.4166 45.2084C55.4166 43.2745 54.6484 41.4198 53.2809 40.0524C51.9135 38.6849 50.0588 37.9167 48.125 37.9167Z" fill="black"/>
</svg>
