<svg width="66" height="66" viewBox="0 0 66 66" fill="none" xmlns="http://www.w3.org/2000/svg">
<g clip-path="url(#clip0_128_154)">
<path d="M15.609 29.1363H21.252V43.5573C18.9185 42.1477 16.9777 40.1729 15.609 37.8153V29.1363ZM65.6012 58.9352C65.8572 59.1946 66.0007 59.5444 66.0007 59.9087C66.0007 60.2731 65.8572 60.6229 65.6012 60.8822L60.8822 65.6012C60.6229 65.8572 60.2731 66.0007 59.9087 66.0007C59.5444 66.0007 59.1946 65.8572 58.9352 65.6012L47.2533 53.9193L47.234 53.9C47.179 53.845 47.157 53.7763 47.1157 53.7185C42.0583 57.4099 35.9586 59.3985 29.6973 59.3973C13.2962 59.3973 0 46.101 0 29.6973C0 13.2935 13.2963 0 29.7 0C46.1038 0 59.3973 13.2963 59.3973 29.7C59.3973 36.2148 57.2743 42.2207 53.7158 47.1157C53.7845 47.1625 53.8587 47.1928 53.9193 47.2533L65.6012 58.9352ZM51.7743 29.6973C51.7672 25.341 50.4694 21.0844 48.0447 17.4653C45.6201 13.8461 42.1774 11.0265 38.1513 9.36273C34.1253 7.69891 29.6965 7.26544 25.4242 8.11704C21.152 8.96865 17.2279 11.0671 14.1475 14.1475C11.0671 17.2279 8.96865 21.152 8.11704 25.4242C7.26544 29.6965 7.69891 34.1253 9.36273 38.1513C11.0265 42.1774 13.8461 45.6201 17.4653 48.0447C21.0844 50.4694 25.341 51.7672 29.6973 51.7743H29.7633C32.6581 51.7699 35.5238 51.1954 38.1966 50.0836C40.8695 48.9718 43.2971 47.3444 45.3411 45.2944C47.385 43.2443 49.0051 40.8118 50.1089 38.1356C51.2127 35.4595 51.7786 32.5921 51.7743 29.6973ZM38.4092 43.3923C40.7559 41.8955 42.6858 39.8294 44.0192 37.3862V32.5353H38.4092V43.3923ZM26.0343 45.9992C27.2516 46.1551 28.4726 46.2211 29.6973 46.1973C30.7972 46.2651 31.8972 46.2651 32.9972 46.1973V21.153H26.037L26.0343 45.9992Z" fill="black"/>
</g>
<defs>
<clipPath id="clip0_128_154">
<rect width="66" height="66" fill="white"/>
</clipPath>
</defs>
</svg>
