<svg width="82" height="82" viewBox="0 0 82 82" fill="none" xmlns="http://www.w3.org/2000/svg">
<path d="M23.9167 58.0833H30.75V41H23.9167V58.0833ZM51.25 58.0833H58.0833V23.9167H51.25V58.0833ZM37.5833 58.0833H44.4167V47.8333H37.5833V58.0833ZM37.5833 41H44.4167V34.1667H37.5833V41ZM17.0833 71.75C15.2042 71.75 13.5961 71.0815 12.259 69.7444C10.9219 68.4074 10.2523 66.7981 10.25 64.9167V17.0833C10.25 15.2042 10.9197 13.5961 12.259 12.259C13.5983 10.9219 15.2064 10.2523 17.0833 10.25H64.9167C66.7958 10.25 68.4051 10.9197 69.7444 12.259C71.0837 13.5983 71.7523 15.2064 71.75 17.0833V64.9167C71.75 66.7958 71.0815 68.4051 69.7444 69.7444C68.4074 71.0837 66.7981 71.7523 64.9167 71.75H17.0833ZM17.0833 64.9167H64.9167V17.0833H17.0833V64.9167Z" fill="black"/>
</svg>
