<svg width="63" height="63" viewBox="0 0 63 63" fill="none" xmlns="http://www.w3.org/2000/svg">
<g clip-path="url(#clip0_128_135)">
<path d="M55.8075 33.6471H45.7882V28.6374H55.8075V33.6471ZM55.8075 36.5097H45.7882V41.5194H55.8075V36.5097ZM55.8075 12.8928H45.7882V17.9024H55.8075V12.8928ZM55.8075 20.7651H45.7882V25.7747H55.8075V20.7651ZM55.8075 44.382H45.7882V49.3917H55.8075V44.382ZM62.7279 54.2582C62.4417 55.7468 60.6525 55.7825 59.4574 55.8327H37.2003V62.2736H32.7559L0 56.5483V6.45907L32.9492 0.726562H37.2003V6.4304H58.6916C59.9012 6.48048 61.2323 6.39459 62.2842 7.11737C63.0214 8.17656 62.9499 9.52208 63 10.7386L62.9713 47.9961C62.9356 50.0787 63.1645 52.2043 62.7279 54.2582ZM26.2433 43.0295C24.2682 39.0218 22.2572 35.0426 20.2891 31.0349C22.2357 27.1345 24.1537 23.2199 26.0645 19.3052C24.4399 19.3839 22.8154 19.4841 21.198 19.5986C19.9885 22.5399 18.5786 25.4026 17.634 28.4442C16.7537 25.5744 15.5872 22.8119 14.5209 20.0137C12.9464 20.0996 11.3719 20.1926 9.79748 20.2856C11.4578 23.9499 13.2256 27.5638 14.8358 31.2496C12.9392 34.8279 11.1644 38.4564 9.32511 42.0562C10.8924 42.1205 12.4597 42.185 14.027 42.2064C15.1435 39.3581 16.5318 36.6171 17.5051 33.7115C18.3783 36.8318 19.8596 39.7159 21.0763 42.7002C22.8011 42.822 24.5186 42.9293 26.2433 43.0295ZM59.5867 9.82932H37.2003V12.8928H42.9256V17.9024H37.2003V20.7651H42.9256V25.7747H37.2003V28.6374H42.9256V33.6471H37.2003V36.5097H42.9256V41.5194H37.2003V44.382H42.9256V49.3917H37.2003V52.7013H59.5867V9.82932Z" fill="black"/>
</g>
<defs>
<clipPath id="clip0_128_135">
<rect width="63" height="63" fill="white"/>
</clipPath>
</defs>
</svg>
