<svg width="66" height="66" viewBox="0 0 66 66" fill="none" xmlns="http://www.w3.org/2000/svg">
<g clip-path="url(#clip0_187_2)">
<path d="M62.81 8.24439V57.7416C62.8209 59.9168 61.9676 62.0073 60.4375 63.5534C58.9074 65.0994 56.8259 65.9745 54.6507 65.9861C54.3126 65.9886 53.9746 65.9702 53.6387 65.9311C51.6085 65.6299 49.7584 64.5971 48.4366 63.027C47.1147 61.457 46.4122 59.458 46.4612 57.4061V8.57989C46.4126 6.52602 47.117 4.52531 48.4417 2.95495C49.7664 1.3846 51.6198 0.353087 53.6525 0.0548942C54.8057 -0.0797956 55.9744 0.0318631 57.0813 0.382487C58.1882 0.733111 59.208 1.31471 60.0734 2.08883C60.9387 2.86295 61.6299 3.81196 62.1012 4.8731C62.5725 5.93423 62.8159 7.08332 62.81 8.24439ZM11.3657 49.6511C10.2796 49.6312 9.20047 49.8279 8.19126 50.2298C7.18205 50.6316 6.26304 51.2306 5.48792 51.9916C4.71279 52.7527 4.0971 53.6605 3.67681 54.6622C3.25651 55.6639 3.04004 56.7392 3.04004 57.8255C3.04004 58.9118 3.25651 59.9872 3.67681 60.9888C4.0971 61.9905 4.71279 62.8984 5.48792 63.6594C6.26304 64.4205 7.18205 65.0194 8.19126 65.4212C9.20047 65.8231 10.2796 66.0198 11.3657 65.9999C13.5077 65.9606 15.5488 65.0821 17.0497 63.5534C18.5506 62.0247 19.3915 59.9679 19.3915 57.8255C19.3915 55.6831 18.5506 53.6264 17.0497 52.0976C15.5488 50.5689 13.5077 49.6904 11.3657 49.6511ZM33.0137 24.8736H32.8762C30.6937 24.9931 28.6433 25.957 27.159 27.5615C25.6746 29.1659 24.8728 31.285 24.9232 33.4701V55.4289C24.9232 61.3881 27.5467 65.0044 31.3857 65.7771C32.577 66.0188 33.8071 65.9922 34.9868 65.6994C36.1665 65.4065 37.2662 64.8548 38.2061 64.0841C39.1461 63.3135 39.9027 62.3432 40.4211 61.2438C40.9395 60.1444 41.2067 58.9434 41.2032 57.7279V33.0906C41.205 32.0134 40.9946 30.9463 40.5841 29.9503C40.1735 28.9544 39.5707 28.0491 38.8103 27.286C38.0498 26.523 37.1465 25.9173 36.1519 25.5033C35.1574 25.0894 34.091 24.8754 33.0137 24.8736Z" fill="black"/>
</g>
<defs>
<clipPath id="clip0_187_2">
<rect width="66" height="66" fill="white"/>
</clipPath>
</defs>
</svg>
