<svg width="69" height="65" viewBox="0 0 69 65" fill="none" xmlns="http://www.w3.org/2000/svg">
<g clip-path="url(#clip0_128_100)">
<path d="M32.2 32.5C32.2 29.9367 31.3016 27.7483 29.5047 25.9347C27.7078 24.1211 25.5396 23.2143 23 23.2143C20.4604 23.2143 18.2922 24.1211 16.4953 25.9347C14.6984 27.7483 13.8 29.9367 13.8 32.5C13.8 35.0632 14.6984 37.2516 16.4953 39.0653C18.2922 40.8789 20.4604 41.7857 23 41.7857C25.5396 41.7857 27.7078 40.8789 29.5047 39.0653C31.3016 37.2516 32.2 35.0632 32.2 32.5ZM59.8 51.0714C59.8 49.814 59.3448 48.7258 58.4344 47.8069C57.524 46.888 56.4458 46.4285 55.2 46.4285C53.9542 46.4285 52.876 46.888 51.9656 47.8069C51.0552 48.7258 50.6 49.814 50.6 51.0714C50.6 52.353 51.0492 53.4472 51.9477 54.354C52.8461 55.2608 53.9302 55.7142 55.2 55.7142C56.4698 55.7142 57.5539 55.2608 58.4523 54.354C59.3508 53.4472 59.8 52.353 59.8 51.0714ZM59.8 13.9285C59.8 12.6711 59.3448 11.5829 58.4344 10.664C57.524 9.74513 56.4458 9.28568 55.2 9.28568C53.9542 9.28568 52.876 9.74513 51.9656 10.664C51.0552 11.5829 50.6 12.6711 50.6 13.9285C50.6 15.2102 51.0492 16.3044 51.9477 17.2112C52.8461 18.118 53.9302 18.5714 55.2 18.5714C56.4698 18.5714 57.5539 18.118 58.4523 17.2112C59.3508 16.3044 59.8 15.2102 59.8 13.9285ZM46 29.1992V35.9096C46 36.1514 45.9161 36.3871 45.7484 36.6169C45.5807 36.8466 45.3891 36.9736 45.1734 36.9977L39.6031 37.8683C39.3396 38.7146 38.9562 39.6335 38.4531 40.625C39.2677 41.7857 40.3458 43.1761 41.6875 44.7963C41.8552 45.0623 41.9391 45.3041 41.9391 45.5217C41.9391 45.8119 41.8552 46.0416 41.6875 46.2109C41.1365 46.9363 40.1482 48.0185 38.7227 49.4573C37.2971 50.8961 36.3568 51.6155 35.9016 51.6155C35.638 51.6155 35.3865 51.5308 35.1469 51.3616L31.0141 48.0971C30.1276 48.5565 29.2052 48.9313 28.2469 49.2215C27.9833 51.8331 27.7078 53.7072 27.4203 54.8437C27.2526 55.4241 26.8932 55.7142 26.3422 55.7142H19.6578C19.3943 55.7142 19.1547 55.6236 18.9391 55.4422C18.7234 55.2608 18.6036 55.0493 18.5797 54.8074L17.7531 49.2578C16.9385 49.016 16.0401 48.6411 15.0578 48.1333L10.8172 51.3616C10.6495 51.5308 10.4099 51.6155 10.0984 51.6155C9.8349 51.6155 9.58333 51.5188 9.34375 51.3253C5.89375 48.1092 4.16875 46.1746 4.16875 45.5217C4.16875 45.3041 4.2526 45.0744 4.42031 44.8326C4.6599 44.494 5.15104 43.8532 5.89375 42.9101C6.63646 41.967 7.19948 41.2295 7.58281 40.6975C7.03177 39.6335 6.6125 38.6421 6.325 37.7232L0.8625 36.8526C0.622917 36.8285 0.419271 36.7136 0.251563 36.5081C0.0838542 36.3025 0 36.0667 0 35.8007V29.0904C0 28.8486 0.0838542 28.6128 0.251563 28.3831C0.419271 28.1533 0.610937 28.0264 0.826562 28.0022L6.39687 27.1317C6.66042 26.2853 7.04375 25.3664 7.54688 24.375C6.73229 23.2143 5.65417 21.8238 4.3125 20.2036C4.14479 19.9377 4.06094 19.6958 4.06094 19.4782C4.06094 19.188 4.14479 18.9462 4.3125 18.7528C4.83958 18.0273 5.82188 16.9512 7.25937 15.5245C8.69687 14.0978 9.64323 13.3845 10.0984 13.3845C10.362 13.3845 10.6135 13.4691 10.8531 13.6384L14.9859 16.9029C15.8005 16.4676 16.7229 16.0807 17.7531 15.7422C18.0167 13.1305 18.2922 11.2686 18.5797 10.1562C18.7474 9.57586 19.1068 9.28568 19.6578 9.28568H26.3422C26.6057 9.28568 26.8453 9.37636 27.0609 9.55772C27.2766 9.73908 27.3964 9.95067 27.4203 10.1925L28.2469 15.7422C29.0615 15.984 29.9599 16.3588 30.9422 16.8666L35.1828 13.6384C35.3745 13.4691 35.6141 13.3845 35.9016 13.3845C36.1651 13.3845 36.4167 13.4812 36.6562 13.6746C40.1063 16.8908 41.8312 18.8253 41.8312 19.4782C41.8312 19.6717 41.7474 19.9014 41.5797 20.1674C41.2922 20.5543 40.7891 21.2072 40.0703 22.1261C39.3516 23.045 38.8125 23.7704 38.4531 24.3024C39.0042 25.4631 39.4115 26.4546 39.675 27.2768L45.1375 28.111C45.3771 28.1594 45.5807 28.2863 45.7484 28.4919C45.9161 28.6974 46 28.9332 46 29.1992ZM69 48.5323V53.6105C69 53.9974 67.2151 54.3722 63.6453 54.7349C63.3578 55.3878 62.9984 56.0165 62.5672 56.6211C63.7891 59.3536 64.4 61.0221 64.4 61.6266C64.4 61.7234 64.3521 61.808 64.2562 61.8805C61.3333 63.5974 59.8479 64.4559 59.8 64.4559C59.6083 64.4559 59.0573 63.8876 58.1469 62.7511C57.2365 61.6145 56.6135 60.7924 56.2781 60.2846C55.799 60.3329 55.4396 60.3571 55.2 60.3571C54.9604 60.3571 54.601 60.3329 54.1219 60.2846C53.7865 60.7924 53.1635 61.6145 52.2531 62.7511C51.3427 63.8876 50.7917 64.4559 50.6 64.4559C50.5521 64.4559 49.0667 63.5974 46.1437 61.8805C46.0479 61.808 46 61.7234 46 61.6266C46 61.0221 46.6109 59.3536 47.8328 56.6211C47.4016 56.0165 47.0422 55.3878 46.7547 54.7349C43.1849 54.3722 41.4 53.9974 41.4 53.6105V48.5323C41.4 48.1454 43.1849 47.7706 46.7547 47.4079C47.0661 46.7066 47.4255 46.0779 47.8328 45.5217C46.6109 42.7892 46 41.1207 46 40.5161C46 40.4194 46.0479 40.3348 46.1437 40.2622C46.2396 40.2139 46.6589 39.9721 47.4016 39.5368C48.1443 39.1015 48.851 38.6904 49.5219 38.3035C50.1927 37.9166 50.5521 37.7232 50.6 37.7232C50.7917 37.7232 51.3427 38.2854 52.2531 39.4098C53.1635 40.5343 53.7865 41.3504 54.1219 41.8582C54.601 41.8099 54.9604 41.7857 55.2 41.7857C55.4396 41.7857 55.799 41.8099 56.2781 41.8582C57.5 40.1413 58.6021 38.7872 59.5844 37.7957L59.8 37.7232C59.8958 37.7232 61.3812 38.5695 64.2562 40.2622C64.3521 40.3348 64.4 40.4194 64.4 40.5161C64.4 41.1207 63.7891 42.7892 62.5672 45.5217C62.9745 46.0779 63.3339 46.7066 63.6453 47.4079C67.2151 47.7706 69 48.1454 69 48.5323ZM69 11.3895V16.4676C69 16.8545 67.2151 17.2293 63.6453 17.592C63.3578 18.2449 62.9984 18.8737 62.5672 19.4782C63.7891 22.2107 64.4 23.8792 64.4 24.4838C64.4 24.5805 64.3521 24.6651 64.2562 24.7377C61.3333 26.4546 59.8479 27.313 59.8 27.313C59.6083 27.313 59.0573 26.7448 58.1469 25.6082C57.2365 24.4717 56.6135 23.6495 56.2781 23.1417C55.799 23.1901 55.4396 23.2143 55.2 23.2143C54.9604 23.2143 54.601 23.1901 54.1219 23.1417C53.7865 23.6495 53.1635 24.4717 52.2531 25.6082C51.3427 26.7448 50.7917 27.313 50.6 27.313C50.5521 27.313 49.0667 26.4546 46.1437 24.7377C46.0479 24.6651 46 24.5805 46 24.4838C46 23.8792 46.6109 22.2107 47.8328 19.4782C47.4016 18.8737 47.0422 18.2449 46.7547 17.592C43.1849 17.2293 41.4 16.8545 41.4 16.4676V11.3895C41.4 11.0026 43.1849 10.6278 46.7547 10.265C47.0661 9.56377 47.4255 8.93505 47.8328 8.37887C46.6109 5.64636 46 3.97783 46 3.37329C46 3.27656 46.0479 3.19193 46.1437 3.11938C46.2396 3.07102 46.6589 2.82921 47.4016 2.39394C48.1443 1.95867 48.851 1.54758 49.5219 1.16068C50.1927 0.773775 50.5521 0.580322 50.6 0.580322C50.7917 0.580322 51.3427 1.14254 52.2531 2.26699C53.1635 3.39143 53.7865 4.20755 54.1219 4.71537C54.601 4.667 54.9604 4.64282 55.2 4.64282C55.4396 4.64282 55.799 4.667 56.2781 4.71537C57.5 2.99848 58.6021 1.64431 59.5844 0.652867L59.8 0.580322C59.8958 0.580322 61.3812 1.42668 64.2562 3.11938C64.3521 3.19193 64.4 3.27656 64.4 3.37329C64.4 3.97783 63.7891 5.64636 62.5672 8.37887C62.9745 8.93505 63.3339 9.56377 63.6453 10.265C67.2151 10.6278 69 11.0026 69 11.3895Z" fill="black"/>
</g>
<defs>
<clipPath id="clip0_128_100">
<rect width="69" height="65" fill="white"/>
</clipPath>
</defs>
</svg>
