<svg width="39" height="39" viewBox="0 0 39 39" fill="none" xmlns="http://www.w3.org/2000/svg">
<path d="M19.8412 3.86694C17.7502 3.86694 15.6797 4.2788 13.7478 5.07899C11.816 5.87918 10.0607 7.05204 8.58212 8.53061C5.59603 11.5167 3.91846 15.5667 3.91846 19.7897C3.91846 26.8275 8.48829 32.7986 14.8096 34.9163C15.6058 35.0437 15.8605 34.5501 15.8605 34.1202V31.4292C11.4499 32.3846 10.5105 29.2956 10.5105 29.2956C9.77803 27.4485 8.74305 26.9549 8.74305 26.9549C7.29408 25.9677 8.85451 25.9996 8.85451 25.9996C10.4468 26.111 11.2907 27.6396 11.2907 27.6396C12.676 30.0599 15.0166 29.3433 15.9242 28.9612C16.0675 27.9262 16.4815 27.2256 16.9273 26.8275C13.3925 26.4295 9.68249 25.0601 9.68249 18.9936C9.68249 17.2261 10.2876 15.809 11.3225 14.6785C11.1633 14.2804 10.606 12.6245 11.4818 10.4749C11.4818 10.4749 12.8193 10.045 15.8605 12.099C17.1184 11.7487 18.4878 11.5736 19.8412 11.5736C21.1946 11.5736 22.564 11.7487 23.8219 12.099C26.8631 10.045 28.2006 10.4749 28.2006 10.4749C29.0764 12.6245 28.5191 14.2804 28.3599 14.6785C29.3949 15.809 29.9999 17.2261 29.9999 18.9936C29.9999 25.076 26.274 26.4136 22.7232 26.8116C23.2964 27.3052 23.8219 28.2765 23.8219 29.7573V34.1202C23.8219 34.5501 24.0767 35.0596 24.8887 34.9163C31.21 32.7826 35.764 26.8275 35.764 19.7897C35.764 17.6987 35.3521 15.6282 34.5519 13.6963C33.7517 11.7645 32.5788 10.0092 31.1003 8.53061C29.6217 7.05204 27.8664 5.87918 25.9346 5.07899C24.0027 4.2788 21.9322 3.86694 19.8412 3.86694Z" fill="black"/>
</svg>
