<svg width="80" height="80" viewBox="0 0 80 80" fill="none" xmlns="http://www.w3.org/2000/svg">
<path d="M16.5967 32.2834C9.97666 29.6367 6.66666 28.3134 6.66666 26.6667C6.66666 25.02 9.97666 23.7 16.5967 21.05L25.9567 17.3067C32.5767 14.6567 35.89 13.3334 40 13.3334C44.11 13.3334 47.4233 14.6567 54.0433 17.3067L63.4033 21.05C70.0233 23.6967 73.3333 25.02 73.3333 26.6667C73.3333 28.3134 70.0233 29.6334 63.4033 32.2834L54.0433 36.03C47.4233 38.6767 44.11 40 40 40C35.89 40 32.5767 38.6767 25.9567 36.03L16.5967 32.2834Z" fill="black"/>
<path fill-rule="evenodd" clip-rule="evenodd" d="M6.66666 26.6667C6.66666 28.3134 9.97666 29.6334 16.5967 32.2834L25.9567 36.03C32.5767 38.6767 35.89 40 40 40C44.11 40 47.4233 38.6767 54.0433 36.03L63.4033 32.2834C70.0233 29.6367 73.3333 28.3134 73.3333 26.6667C73.3333 25.02 70.0233 23.7 63.4033 21.05L54.0433 17.3067C47.4233 14.6567 44.11 13.3334 40 13.3334C35.89 13.3334 32.5767 14.6567 25.9567 17.3067L16.6 21.05C9.97666 23.6967 6.66666 25.02 6.66666 26.6667Z" fill="black"/>
<path d="M63.4033 45.6167L54.0433 49.3633C47.4233 52.01 44.11 53.3333 40 53.3333C35.89 53.3333 32.5767 52.01 25.9567 49.3633L16.6 45.6167C9.97666 42.97 6.66666 41.6433 6.66666 40C6.66666 38.5167 9.35666 37.2933 14.7333 35.13L25.2033 39.3167C31.37 41.7833 35.24 43.3333 40 43.3333C44.76 43.3333 48.6333 41.7833 54.7967 39.3167L65.2633 35.13C70.6467 37.2967 73.3333 38.5167 73.3333 40C73.3333 41.6433 70.0233 42.9667 63.4033 45.6167Z" fill="black"/>
<path d="M63.4033 58.95L54.0433 62.6934C47.4233 65.3434 44.11 66.6667 40 66.6667C35.89 66.6667 32.5767 65.3434 25.9567 62.6934L16.6 58.95C9.97666 56.3 6.66666 54.9767 6.66666 53.3334C6.66666 51.85 9.35666 50.6267 14.7333 48.4634L25.2033 52.65C31.37 55.1167 35.24 56.6667 40 56.6667C44.76 56.6667 48.6333 55.1167 54.7967 52.65L65.2633 48.4634C70.6433 50.63 73.3333 51.85 73.3333 53.33C73.3333 54.9767 70.0233 56.3 63.4033 58.95Z" fill="black"/>
</svg>
