<svg width="39" height="39" viewBox="0 0 39 39" fill="none" xmlns="http://www.w3.org/2000/svg">
<path d="M30.7934 4.86218C31.6531 4.86218 32.4776 5.20369 33.0855 5.81157C33.6934 6.41945 34.0349 7.24392 34.0349 8.1036V30.7935C34.0349 31.6532 33.6934 32.4777 33.0855 33.0855C32.4776 33.6934 31.6531 34.0349 30.7934 34.0349H8.10354C7.24386 34.0349 6.41939 33.6934 5.81151 33.0855C5.20363 32.4777 4.86212 31.6532 4.86212 30.7935V8.1036C4.86212 7.24392 5.20363 6.41945 5.81151 5.81157C6.41939 5.20369 7.24386 4.86218 8.10354 4.86218H30.7934ZM29.9831 29.9832V21.3934C29.9831 19.9921 29.4264 18.6482 28.4356 17.6574C27.4447 16.6665 26.1009 16.1099 24.6996 16.1099C23.322 16.1099 21.7175 16.9527 20.9395 18.2168V16.4178H16.4178V29.9832H20.9395V21.9931C20.9395 20.7451 21.9444 19.7241 23.1923 19.7241C23.7941 19.7241 24.3712 19.9631 24.7967 20.3886C25.2223 20.8142 25.4613 21.3913 25.4613 21.9931V29.9832H29.9831ZM11.1505 13.8733C11.8726 13.8733 12.5651 13.5865 13.0758 13.0758C13.5864 12.5652 13.8733 11.8727 13.8733 11.1505C13.8733 9.64327 12.6577 8.41153 11.1505 8.41153C10.424 8.41153 9.72737 8.7001 9.21371 9.21377C8.70004 9.72743 8.41147 10.4241 8.41147 11.1505C8.41147 12.6578 9.64321 13.8733 11.1505 13.8733ZM13.4033 29.9832V16.4178H8.91389V29.9832H13.4033Z" fill="black"/>
</svg>
