<svg width="641" height="641" viewBox="0 0 641 641" fill="none" xmlns="http://www.w3.org/2000/svg">
<circle cx="320.497" cy="320.5" r="320.5" fill="white"/>
<path d="M150.758 229.966L167.199 289.142L107.73 273.792L150.758 229.966Z" fill="#1E1E1E"/>
<path d="M555.609 320.5C555.609 342.484 549.09 363.974 536.877 382.253C524.663 400.532 507.304 414.779 486.993 423.192C466.682 431.605 444.333 433.806 422.772 429.517C401.21 425.228 381.405 414.642 365.86 399.097C350.315 383.552 339.729 363.746 335.44 342.185C331.151 320.623 333.352 298.274 341.765 277.964C350.178 257.653 364.425 240.294 382.704 228.08C400.983 215.866 422.473 209.347 444.457 209.347L444.457 292.132C438.846 292.132 433.361 293.796 428.696 296.913C424.031 300.03 420.395 304.46 418.248 309.644C416.101 314.828 415.539 320.532 416.633 326.035C417.728 331.537 420.43 336.592 424.397 340.56C428.365 344.527 433.419 347.229 438.922 348.323C444.425 349.418 450.129 348.856 455.313 346.709C460.496 344.562 464.927 340.926 468.044 336.261C471.161 331.596 472.825 326.111 472.825 320.5H555.609Z" fill="#1E1E1E"/>
<path d="M85.284 320.5C85.284 342.484 91.803 363.974 104.017 382.253C116.23 400.532 133.59 414.779 153.9 423.192C174.211 431.605 196.56 433.806 218.122 429.517C239.683 425.228 259.489 414.642 275.034 399.097C290.579 383.552 301.165 363.746 305.454 342.185C309.743 320.623 307.541 298.274 299.128 277.964C290.716 257.653 276.469 240.294 258.19 228.08C239.911 215.866 218.421 209.347 196.437 209.347L196.437 292.132C202.047 292.132 207.532 293.796 212.197 296.913C216.862 300.03 220.499 304.46 222.646 309.644C224.793 314.828 225.355 320.532 224.26 326.035C223.165 331.537 220.464 336.592 216.496 340.56C212.529 344.527 207.474 347.229 201.971 348.323C196.468 349.418 190.764 348.856 185.581 346.709C180.397 344.562 175.966 340.926 172.849 336.261C169.732 331.596 168.068 326.111 168.068 320.5H85.284Z" fill="#1E1E1E"/>
</svg>
