<svg width="66" height="66" viewBox="0 0 66 66" fill="none" xmlns="http://www.w3.org/2000/svg">
<g clip-path="url(#clip0_128_150)">
<path d="M32.857 0C32.0982 0.000721335 31.3469 0.150993 30.6462 0.442225C29.9454 0.733457 29.309 1.15994 28.7731 1.69729C28.2373 2.23464 27.8127 2.87233 27.5234 3.5739C27.2342 4.27546 27.0861 5.02715 27.0875 5.786C27.0896 6.92813 27.4303 8.04399 28.0665 8.9925L30.5278 6.5285C30.357 6.00925 30.3662 5.44759 30.5538 4.9342C30.7415 4.42081 31.0968 3.98565 31.5622 3.69899C32.0276 3.41233 32.5761 3.29089 33.119 3.35429C33.6619 3.41768 34.1676 3.66221 34.5545 4.04839C34.9414 4.43456 35.1868 4.93985 35.2511 5.48267C35.3155 6.02549 35.195 6.57416 34.9092 7.04009C34.6234 7.50602 34.1888 7.86202 33.6758 8.05061C33.1627 8.23921 32.6011 8.24938 32.0815 8.0795L29.6203 10.5407C30.8871 11.397 32.4423 11.7149 33.9436 11.4246C35.4448 11.1342 36.7693 10.2594 37.6255 8.9925C38.4818 7.72563 38.7997 6.1705 38.5093 4.66922C38.219 3.16795 37.3442 1.8435 36.0773 0.98725C35.1266 0.346018 34.0065 0.00233731 32.8598 0M30.5608 16.8107C30.5661 14.8625 29.9367 12.9656 28.7678 11.407L25.5613 14.6025C26.0466 15.4918 26.2242 16.5166 26.0666 17.5173C25.9089 18.518 25.4248 19.4385 24.6895 20.1355L26.4275 24.3842C27.6944 23.5677 28.7364 22.4467 29.4584 21.1237C30.1804 19.8008 30.5594 18.3179 30.5608 16.8107ZM21.6233 21.3923H21.5408C20.3425 21.364 19.2028 20.8685 18.365 20.0114C17.5271 19.1544 17.0575 18.0037 17.0564 16.8052C17.0554 15.6066 17.5229 14.4551 18.3592 13.5965C19.1955 12.738 20.3344 12.2404 21.5325 12.21C22.4317 12.209 23.3114 12.4719 24.0625 12.9663L27.225 9.801C25.365 8.31775 22.9942 7.6294 20.6291 7.88585C18.2639 8.14229 16.0958 9.32276 14.5969 11.1702C13.0979 13.0177 12.3896 15.3825 12.626 17.7498C12.8625 20.117 14.0246 22.295 15.8593 23.8095C16.8962 24.6511 18.107 25.252 19.4044 25.5687C20.7017 25.8854 22.0532 25.9101 23.3613 25.641L21.6233 21.3923ZM32.978 25.0662C30.976 25.0662 28.985 25.3577 27.0655 25.9325L29.601 32.1255C33.0109 31.263 36.6214 31.7346 39.6954 33.4439C42.7694 35.1533 45.075 37.9715 46.1414 41.3232C47.2079 44.6749 46.9548 48.3073 45.4338 51.4787C43.9128 54.6501 41.2387 57.1214 37.9573 58.3879C34.676 59.6545 31.035 59.6207 27.7776 58.2937C24.5203 56.9666 21.8924 54.4462 20.4304 51.2472C18.9684 48.0482 18.7826 44.4117 19.9109 41.0803C21.0393 37.749 23.3967 34.9739 26.5018 33.3218L23.9993 27.1508C21.5855 28.3323 19.4281 29.9779 17.6503 31.9935C15.8726 34.009 14.5094 36.3551 13.6386 38.8976C12.7678 41.4401 12.4064 44.1293 12.5751 46.8115C12.7438 49.4937 13.4392 52.1164 14.6218 54.5298C15.8034 56.9439 17.4491 59.1044 19.4648 60.8823C21.4806 62.6603 23.8269 64.0236 26.3697 64.8945C28.9126 65.7653 31.6021 66.1266 34.2846 65.9577C36.9671 65.7888 39.59 65.093 42.0035 63.91C44.4182 62.7289 46.5792 61.0836 48.3577 59.068C50.1362 57.0525 51.5001 54.7062 52.3715 52.1634C53.2429 49.6205 53.6046 46.9308 53.4361 44.2481C53.2676 41.5653 52.572 38.9421 51.3893 36.5283C49.7053 33.0867 47.0888 30.1872 43.8377 28.1598C40.5865 26.1324 36.8315 25.0586 33 25.0607H32.978V25.0662Z" fill="black"/>
</g>
<defs>
<clipPath id="clip0_128_150">
<rect width="66" height="66" fill="white"/>
</clipPath>
</defs>
</svg>
