<svg width="82" height="82" viewBox="0 0 82 82" fill="none" xmlns="http://www.w3.org/2000/svg">
<path d="M16.4 59.45V45.7724L32.8328 55.2106C35.3181 56.6378 38.134 57.3889 41 57.3889C43.8659 57.3889 46.6819 56.6378 49.1672 55.2106L65.6 45.7724V59.45C65.6005 59.7194 65.5478 59.9862 65.4451 60.2353C65.3424 60.4843 65.1916 60.7107 65.0014 60.9014L64.9932 60.9055L64.985 60.9178L64.9563 60.9424L64.862 61.0326L64.534 61.336C64.247 61.5957 63.8356 61.9346 63.2999 62.3528C61.8284 63.4852 60.2634 64.4905 58.6218 65.3581C53.1948 68.2337 47.1418 69.7252 41 69.7C34.8579 69.7239 28.8048 68.2311 23.3782 65.354C21.738 64.4862 20.1744 63.4809 18.7042 62.3487C18.164 61.9306 17.6415 61.4901 17.138 61.0285L17.0437 60.9383C16.8408 60.747 16.6791 60.5164 16.5684 60.2605C16.4577 60.0046 16.4004 59.7288 16.4 59.45ZM76.8709 34.5753L47.1254 51.6518C45.2614 52.7222 43.1495 53.2855 41 53.2855C38.8505 53.2855 36.7386 52.7222 34.8746 51.6518L8.19998 36.3383V55.3459C8.19998 55.8896 7.98399 56.411 7.59955 56.7955C7.2151 57.1799 6.69367 57.3959 6.14998 57.3959C5.60628 57.3959 5.08486 57.1799 4.70041 56.7955C4.31596 56.411 4.09998 55.8896 4.09998 55.3459V32.8C4.09977 32.4304 4.19949 32.0676 4.38859 31.75C4.57769 31.4325 4.84913 31.1719 5.17418 30.996L34.8746 13.94C36.7386 12.8696 38.8505 12.3063 41 12.3063C43.1495 12.3063 45.2614 12.8696 47.1254 13.94L76.8709 31.0206C77.1835 31.2003 77.4431 31.4592 77.6237 31.7712C77.8043 32.0833 77.8993 32.4374 77.8993 32.7979C77.8993 33.1585 77.8043 33.5126 77.6237 33.8247C77.4431 34.1367 77.1835 34.3956 76.8709 34.5753Z" fill="black"/>
</svg>
