<svg width="78" height="78" viewBox="0 0 78 78" fill="none" xmlns="http://www.w3.org/2000/svg">
<path d="M53.3163 17.8781C52.9425 17.8781 52.689 17.9236 52.4258 17.9854V18.0276H52.4713C52.6468 18.3656 52.9457 18.6126 53.1667 18.9149C53.3422 19.2626 53.4918 19.6104 53.6673 19.9549L53.7128 19.9061C54.0182 19.6916 54.1677 19.3471 54.1677 18.8239C54.0378 18.6711 54.0182 18.5184 53.9077 18.3689C53.7777 18.1511 53.4982 18.0439 53.3228 17.8716L53.3163 17.8781ZM18.7525 60.7586H15.7397C15.6544 55.9707 15.3617 51.1887 14.8622 46.4261H14.8363L10.2537 60.7586H7.9625L3.4125 46.4261H3.38C3.02432 51.1962 2.81297 55.9759 2.74625 60.7586H0C0.179833 54.367 0.624 48.3761 1.3325 42.7861H5.07L9.40875 55.9941H9.43475L13.8125 42.7861H17.3713C18.1577 49.3382 18.6214 55.329 18.7622 60.7586H18.7525ZM31.8077 47.4986C30.5792 54.1481 28.9629 58.9798 26.9587 61.9937C25.3923 64.3207 23.6773 65.4831 21.814 65.4809C21.32 65.4809 20.7068 65.3314 19.9745 65.0324V63.4269C20.3342 63.4832 20.7523 63.5114 21.229 63.5114C22.1 63.5114 22.8009 63.2709 23.3317 62.7899C23.9709 62.2049 24.2905 61.5495 24.2905 60.8237C24.2905 60.3188 24.0413 59.2962 23.543 57.7556L20.2475 47.4986H23.205L25.5678 55.1687C26.1029 56.9107 26.325 58.1272 26.234 58.8184C27.534 55.3561 28.4386 51.5828 28.9477 47.4986H31.8077ZM71.864 60.7586H63.3165V42.7861H66.1927V58.5486H71.864V60.7586ZM61.074 61.1974L57.772 59.5724C58.0667 59.3276 58.3429 59.0567 58.6007 58.7599C60.0069 57.1132 60.7089 54.6725 60.7068 51.4376C60.7068 45.4901 58.3722 42.5153 53.703 42.5131C51.415 42.5131 49.6275 43.2682 48.3405 44.7784C46.9408 46.4294 46.241 48.8615 46.241 52.0747C46.2388 55.2358 46.8607 57.5541 48.1065 59.0297C49.2418 60.3622 50.9567 61.0284 53.2513 61.0284C54.1092 61.0284 54.8947 60.9222 55.6075 60.7099L59.9137 63.2189L61.0838 61.1974H61.074ZM50.375 57.1609C49.6448 55.9887 49.2798 54.1081 49.2798 51.5189C49.2798 46.9906 50.6556 44.7264 53.4073 44.7264C54.8503 44.7264 55.9087 45.2681 56.5825 46.3514C57.3105 47.5279 57.6745 49.3945 57.6745 51.9511C57.6745 56.5163 56.2987 58.8 53.547 58.8022C52.1018 58.8022 51.0423 58.2605 50.3685 57.1772L50.375 57.1609ZM44.9865 55.7797C44.9865 57.3093 44.4275 58.5616 43.3095 59.5367C42.1958 60.5117 40.6965 60.9991 38.8115 60.9991C37.0468 60.9991 35.3535 60.4401 33.6993 59.3254L34.4695 57.7784C35.8908 58.4912 37.18 58.8466 38.337 58.8444C39.416 58.8444 40.2643 58.6061 40.8818 58.1294C41.1912 57.8975 41.4409 57.5952 41.6105 57.2477C41.78 56.9002 41.8644 56.5173 41.8568 56.1306C41.8568 55.0581 41.1092 54.1482 39.7508 53.3844C38.4897 52.6922 35.971 51.2491 35.971 51.2491C34.5995 50.2514 33.917 49.1821 33.917 47.4239C33.917 45.9636 34.4262 44.7881 35.4445 43.8976C36.465 42.9963 37.7867 42.5467 39.4095 42.5489C41.0757 42.5489 42.5923 42.9931 43.9595 43.8814L43.2673 45.4284C42.1773 44.947 41.0007 44.6927 39.8092 44.6809C38.8884 44.6809 38.1799 44.9041 37.6838 45.3504C37.4339 45.5588 37.2324 45.8191 37.0932 46.1131C36.954 46.4072 36.8805 46.7281 36.8778 47.0534C36.8778 48.1194 37.6382 49.0359 39.0422 49.8159C40.3195 50.5146 42.9 51.9934 42.9 51.9934C44.3073 52.9846 45.006 54.0409 45.006 55.7894L44.9865 55.7797ZM75.478 36.7606C73.7393 36.7151 72.3905 36.8906 71.2627 37.3716C70.9378 37.5016 70.4177 37.5017 70.3723 37.9144C70.551 38.0867 70.577 38.3694 70.7298 38.6099C70.9898 39.0454 71.4382 39.6271 71.8542 39.9326C72.3049 40.2945 72.7675 40.6303 73.242 40.9401C74.087 41.4601 75.0458 41.7689 75.8745 42.2921C76.3457 42.5976 76.8267 42.9844 77.3045 43.3094C77.5417 43.4719 77.6945 43.7644 78 43.8684V43.8034C77.8505 43.6084 77.805 43.3256 77.6588 43.1079C77.441 42.8901 77.2233 42.6951 77.0088 42.4806C76.3715 41.639 75.6099 40.8993 74.75 40.2869C74.0545 39.8124 72.5335 39.1494 72.2475 38.3531L72.2052 38.3076C72.6797 38.2654 73.2452 38.0931 73.7002 37.9632C74.438 37.7681 75.114 37.8104 75.8777 37.6186C76.2244 37.5276 76.5711 37.4258 76.9177 37.3132V37.1181C76.5277 36.7281 76.2353 36.1984 75.8323 35.8344C74.7063 34.8525 73.5068 33.9583 72.2442 33.1596C71.5618 32.7241 70.6973 32.4447 69.979 32.0742C69.719 31.9442 69.2835 31.8791 69.134 31.6614C68.744 31.1869 68.5165 30.5564 68.2402 29.9909C67.6029 28.7525 67.0099 27.4918 66.4625 26.2111C66.0725 25.3596 65.8353 24.5114 65.3575 23.7314C63.115 20.0361 60.6873 17.7969 56.953 15.6064C56.1502 15.1514 55.1882 14.9564 54.171 14.7159C53.6282 14.6899 53.0855 14.6509 52.546 14.6281C52.1885 14.4754 51.844 14.0626 51.5385 13.8644C50.3035 13.0844 47.1055 11.3944 46.1955 13.6304C45.6105 15.0409 47.0632 16.4319 47.567 17.1469C47.9408 17.6441 48.412 18.2129 48.672 18.7719C48.8247 19.1489 48.867 19.5356 49.0198 19.9289C49.3643 20.8844 49.6925 21.9504 50.1475 22.8441C50.3848 23.2991 50.6447 23.7769 50.9502 24.1864C51.1258 24.4236 51.4248 24.5341 51.493 24.9241C51.1875 25.3661 51.168 26.0096 50.9925 26.5491C50.2125 29.0094 50.518 32.0514 51.623 33.8616C51.9707 34.4011 52.7995 35.5972 53.9077 35.1389C54.8828 34.7489 54.6682 33.5139 54.9478 32.4251C55.0127 32.1651 54.9705 31.9929 55.1037 31.8174V31.8661C55.4092 32.4771 55.7147 33.0589 55.9943 33.6699C56.6637 34.7359 57.8338 35.8409 58.812 36.5786C59.332 36.9687 59.7448 37.6446 60.3948 37.8851V37.8202H60.346C60.2063 37.6317 60.021 37.5406 59.8455 37.3879C59.4339 36.984 59.0537 36.5494 58.708 36.0879C57.7951 34.8348 56.9833 33.5112 56.2802 32.1294C55.9227 31.4469 55.6238 30.7124 55.3378 30.0396C55.2078 29.7796 55.2077 29.3897 54.99 29.2596C54.665 29.7341 54.1873 30.1469 53.95 30.7319C53.5373 31.6679 53.495 32.8184 53.339 34.0144C53.2513 34.0371 53.2935 34.0144 53.2513 34.0599C52.5558 33.8909 52.3185 33.1694 52.0585 32.5649C51.4085 31.0212 51.3013 28.5414 51.8635 26.7636C52.0163 26.3086 52.6662 24.8721 52.4062 24.4366C52.2697 24.0239 51.8408 23.7866 51.6035 23.4519C51.2987 23.016 51.0374 22.5511 50.8235 22.0641C50.3035 20.8486 50.0435 19.5031 49.478 18.2876C49.218 17.7254 48.763 17.1371 48.3925 16.6204C47.9798 16.0354 47.5247 15.6226 47.1965 14.9304C47.0893 14.6931 46.9365 14.2999 47.1087 14.0399C47.1543 13.8644 47.2453 13.7961 47.4142 13.7474C47.7002 13.5134 48.503 13.8189 48.7857 13.9489C49.5885 14.2739 50.2645 14.5794 50.9373 15.0344C51.2428 15.2489 51.571 15.6616 51.961 15.7689H52.416C53.1115 15.9216 53.8948 15.8144 54.5448 16.0061C55.6985 16.3766 56.7385 16.9161 57.6713 17.5011C60.5456 19.3368 62.8834 21.8999 64.4475 24.9306C64.7075 25.4311 64.8213 25.8894 65.0585 26.4094C65.5135 27.4819 66.0758 28.5641 66.5372 29.6009C66.9922 30.6246 67.431 31.6679 68.0843 32.5161C68.4092 32.9711 69.7158 33.2084 70.3008 33.4457C70.733 33.6407 71.4057 33.8194 71.7957 34.0567C72.5433 34.5117 73.2712 35.0316 73.9733 35.5321C74.3307 35.7791 75.413 36.3219 75.478 36.7606Z" fill="black"/>
</svg>
