<svg width="64" height="64" viewBox="0 0 64 64" fill="none" xmlns="http://www.w3.org/2000/svg">
<path d="M45.678 0C43.1892 0.0191902 40.7147 0.37989 38.324 1.072L38.158 1.126C36.654 0.864398 35.1323 0.717972 33.606 0.688C30.46 0.634 27.76 1.394 25.584 2.666C23.438 1.928 18.99 0.634 14.302 0.896C11.044 1.072 7.48 2.062 4.832 4.854C2.208 7.636 0.814 11.948 1.104 17.824C1.186 19.438 1.646 22.072 2.416 25.498C3.176 28.916 4.25 32.916 5.594 36.572C6.938 40.218 8.404 43.498 10.698 45.726C11.842 46.84 13.426 47.79 15.29 47.708C16.594 47.654 17.77 47.082 18.792 46.238C19.29 46.894 19.824 47.174 20.302 47.436C20.918 47.77 21.5 47.998 22.116 48.146C23.22 48.426 25.106 48.792 27.314 48.416C28.1184 48.2729 28.9023 48.0318 29.648 47.698L29.742 50.312C29.856 53.072 29.932 55.624 30.752 57.864C30.888 58.23 31.254 60.104 32.69 61.77C34.138 63.436 36.948 64.468 40.168 63.78C42.43 63.3 45.314 62.426 47.232 59.698C49.128 57.01 49.982 53.146 50.15 46.874C50.19 46.53 50.244 46.25 50.294 45.978L50.742 46.02H50.796C53.212 46.124 55.838 45.78 58.036 44.758C59.972 43.862 61.442 42.956 62.514 41.342C62.776 40.944 63.076 40.456 63.152 39.622C63.234 38.8 62.754 37.496 61.962 36.894C60.38 35.686 59.38 36.144 58.306 36.374C57.2542 36.6006 56.1836 36.7292 55.108 36.758C58.19 31.572 60.398 26.052 61.66 21.174C62.41 18.288 62.828 15.632 62.858 13.31C62.9 10.988 62.704 8.936 61.316 7.156C56.962 1.604 50.846 0.06 46.118 0.01H45.68L45.678 0ZM45.552 1.71C50.022 1.668 55.738 2.918 59.842 8.166C60.77 9.344 61.042 11.062 61.01 13.188C60.978 15.314 60.584 17.844 59.864 20.626C58.48 26.024 55.842 32.292 52.146 37.93C52.275 38.0229 52.4147 38.1001 52.562 38.16C53.332 38.482 55.092 38.752 58.612 38.034C59.498 37.844 60.146 37.722 60.822 38.232C60.9861 38.3704 61.1156 38.5451 61.2003 38.7423C61.2851 38.9395 61.3226 39.1537 61.31 39.368C61.2756 39.6933 61.1532 40.003 60.956 40.264C60.278 41.282 58.938 42.254 57.218 43.056C55.698 43.762 53.508 44.128 51.584 44.15C50.606 44.16 49.71 44.086 48.946 43.846L48.906 43.838C48.612 46.66 47.938 52.244 47.498 54.784C47.146 56.834 46.53 58.472 45.354 59.69C44.176 60.92 42.52 61.648 40.28 62.128C37.51 62.722 35.498 62.086 34.198 60.992C32.898 59.898 32.302 58.44 31.948 57.554C31.7 56.94 31.574 56.148 31.45 55.084C31.3141 53.8136 31.2234 52.5388 31.178 51.262C31.094 49.0233 31.0667 46.78 31.096 44.532C29.9399 45.5908 28.5046 46.2959 26.96 46.564C25.118 46.876 23.482 46.564 22.504 46.324C22.0213 46.2016 21.5557 46.0195 21.118 45.782C20.66 45.542 20.232 45.272 19.942 44.728C19.7749 44.4165 19.7232 44.0559 19.796 43.71C19.8816 43.3582 20.0839 43.0459 20.37 42.824C20.9 42.394 21.6 42.158 22.65 41.938C24.568 41.54 25.244 41.272 25.65 40.946C25.994 40.676 26.392 40.114 27.076 39.29C27.076 39.26 27.076 39.218 27.066 39.186C25.8266 39.1483 24.6134 38.8202 23.524 38.228C23.13 38.644 21.076 40.812 18.588 43.812C17.546 45.06 16.39 45.78 15.162 45.834C13.944 45.884 12.836 45.272 11.9 44.364C10.026 42.54 8.524 39.404 7.222 35.862C5.92 32.32 4.868 28.374 4.108 25.02C3.358 21.654 2.91 18.946 2.846 17.644C2.566 12.092 3.868 8.354 6.096 5.988C8.324 3.622 11.378 2.738 14.358 2.562C19.702 2.26 24.784 4.124 25.806 4.52C27.784 3.176 30.336 2.344 33.524 2.394C35.0346 2.41883 36.5375 2.61475 38.004 2.978L38.058 2.946C38.7028 2.72217 39.3599 2.5352 40.026 2.386C41.8365 1.96329 43.6871 1.73599 45.546 1.708L45.552 1.71ZM45.958 3.49H45.564C44.044 3.508 42.51 3.688 41.022 4.01C44.344 5.48 46.854 7.738 48.624 10.01C49.854 11.572 50.864 13.29 51.634 15.124C51.9367 15.836 52.1387 16.4227 52.24 16.884C52.302 17.114 52.334 17.31 52.354 17.508C52.354 17.612 52.364 17.718 52.312 17.894C52.312 17.904 52.302 17.926 52.302 17.936C52.388 20.27 51.804 21.85 51.728 24.08C51.678 25.696 52.094 27.592 52.198 29.664C52.292 31.61 52.054 33.746 50.792 35.85C50.896 35.976 50.99 36.1 51.094 36.236C54.438 30.964 56.854 25.142 58.136 20.172C58.824 17.494 59.186 15.068 59.218 13.154C59.25 11.236 58.896 9.84 58.436 9.258C54.852 4.684 50.01 3.516 45.956 3.488L45.958 3.49ZM33.176 4.176C30.032 4.186 27.77 5.136 26.054 6.562C24.28 8.042 23.094 10.052 22.324 12.124C21.396 14.572 21.074 16.946 20.948 18.562L20.99 18.54C22.1006 17.9185 23.2929 17.456 24.532 17.166C25.866 16.852 27.314 16.758 28.614 17.27C29.928 17.768 31 18.966 31.396 20.768C33.274 29.456 30.814 32.686 29.908 35.122C29.564 36.008 29.262 36.904 29.022 37.82C29.136 37.798 29.252 37.766 29.366 37.756C30.012 37.706 30.51 37.914 30.804 38.038C31.722 38.422 32.346 39.214 32.69 40.12C32.7767 40.3666 32.839 40.6212 32.876 40.88C32.9097 40.9882 32.9279 41.1007 32.93 41.214C32.825 44.536 32.835 47.8607 32.96 51.182C33.024 52.62 33.118 53.88 33.232 54.88C33.346 55.87 33.502 56.63 33.608 56.89C33.95 57.744 34.45 58.858 35.358 59.618C36.254 60.38 37.544 60.88 39.91 60.38C41.96 59.932 43.222 59.326 44.064 58.452C44.91 57.566 45.408 56.348 45.73 54.484C46.22 51.682 47.188 43.556 47.304 42.036C47.254 40.878 47.418 39.994 47.794 39.316C48.168 38.628 48.752 38.202 49.264 37.972C49.512 37.858 49.752 37.786 49.95 37.722C49.7402 37.4299 49.5249 37.1418 49.304 36.858C48.5731 35.9729 47.973 34.9875 47.522 33.932C47.3154 33.4889 47.0858 33.057 46.834 32.638C46.482 32.004 46.034 31.2 45.564 30.294C44.626 28.502 43.606 26.316 43.074 24.19C42.544 22.064 42.472 19.868 43.826 18.326C45.024 16.95 47.138 16.38 50.292 16.702C50.198 16.42 50.148 16.18 49.99 15.816C49.272 14.1314 48.3367 12.548 47.208 11.106C44.53 7.68 40.186 4.282 33.49 4.168L33.176 4.176ZM15.47 4.312C15.1331 4.31203 14.7962 4.3227 14.46 4.344C11.762 4.502 9.22 5.28 7.396 7.208C5.574 9.146 4.378 12.302 4.636 17.542C4.69 18.542 5.116 21.312 5.854 24.614C6.596 27.918 7.646 31.804 8.908 35.24C10.166 38.666 11.69 41.656 13.148 43.072C13.876 43.77 14.51 44.062 15.084 44.042C15.658 44.01 16.356 43.676 17.21 42.656C18.7594 40.7857 20.3683 38.9655 22.034 37.198C20.8535 36.1694 19.9505 34.8604 19.4081 33.3915C18.8657 31.9227 18.7013 30.341 18.93 28.792C19.2 26.824 19.242 24.978 19.2 23.52C19.17 22.104 19.074 21.168 19.074 20.574V20.51L19.064 20.492C19.064 17.418 19.608 14.378 20.648 11.492C21.398 9.5 22.504 7.492 24.168 5.854C22.534 5.312 19.626 4.502 16.482 4.344C16.1458 4.3227 15.8069 4.31203 15.47 4.312ZM48.53 18.394C46.72 18.426 45.708 18.896 45.168 19.498C44.416 20.364 44.344 21.884 44.814 23.76C45.28 25.634 46.252 27.728 47.158 29.47C47.606 30.344 48.044 31.126 48.396 31.76C48.762 32.406 49.022 32.854 49.178 33.25C49.324 33.604 49.492 33.916 49.658 34.208C50.356 32.728 50.482 31.28 50.408 29.76C50.314 27.886 49.878 25.968 49.95 24.032C50.024 21.76 50.472 20.28 50.504 18.53C49.8508 18.4441 49.1928 18.3987 48.534 18.394H48.53ZM26.574 18.71C26.022 18.71 25.47 18.782 24.928 18.908C23.8531 19.1639 22.8186 19.567 21.854 20.106C21.5289 20.2817 21.2192 20.4844 20.928 20.712L20.864 20.762C20.886 21.16 20.958 22.096 20.99 23.492C21.022 25.012 20.99 26.948 20.7 29.044C20.054 33.606 23.366 37.378 27.252 37.388C27.482 36.45 27.854 35.5 28.23 34.502C29.312 31.584 31.438 29.46 29.646 21.148C29.356 19.794 28.772 19.242 27.968 18.93C27.521 18.7709 27.0482 18.697 26.574 18.712V18.71ZM47.688 19.25H47.824C47.99 19.26 48.158 19.272 48.302 19.312C48.4325 19.3359 48.5569 19.3855 48.668 19.458C48.72 19.4892 48.7646 19.5313 48.7988 19.5813C48.8329 19.6314 48.8559 19.6882 48.866 19.748V19.77C48.8643 19.8978 48.8321 20.0233 48.772 20.136C48.6918 20.2787 48.5944 20.411 48.482 20.53C48.2125 20.83 47.8482 21.0284 47.45 21.092C47.0644 21.1414 46.6743 21.0452 46.356 20.822C46.2295 20.7311 46.114 20.6257 46.012 20.508C45.9199 20.4148 45.8609 20.2939 45.844 20.164C45.8333 20.0409 45.8706 19.9184 45.948 19.822C46.0408 19.7276 46.1465 19.6467 46.262 19.582C46.52 19.436 46.864 19.332 47.262 19.278C47.4087 19.2607 47.5507 19.2473 47.688 19.238V19.25ZM26.832 19.698C26.968 19.698 27.126 19.708 27.272 19.728C27.688 19.792 28.042 19.896 28.322 20.062C28.46 20.1277 28.5811 20.2242 28.676 20.344C28.7799 20.4693 28.8321 20.6295 28.822 20.792C28.7935 20.946 28.7245 21.0896 28.622 21.208C28.5094 21.3388 28.3803 21.4544 28.238 21.552C27.8915 21.8012 27.4632 21.9092 27.04 21.854C26.6113 21.7851 26.2186 21.5729 25.926 21.252C25.8021 21.1208 25.6964 20.9735 25.612 20.814C25.5187 20.6724 25.4783 20.5024 25.498 20.334C25.54 20.054 25.78 19.896 26.01 19.814C26.272 19.728 26.552 19.7 26.832 19.71V19.698ZM50.99 39.28H50.98C50.596 39.426 50.274 39.48 50.002 39.606C49.728 39.712 49.5024 39.9148 49.368 40.176C49.19 40.48 49.056 41.022 49.096 41.946C49.2158 42.0334 49.3507 42.0978 49.494 42.136C49.942 42.272 50.712 42.366 51.566 42.354C53.264 42.332 55.358 41.938 56.472 41.416C57.3818 40.9929 58.2269 40.4427 58.982 39.782C55.264 40.542 53.172 40.344 51.878 39.814C51.5608 39.6751 51.261 39.4956 50.99 39.28ZM29.574 39.53H29.52C29.376 39.54 29.176 39.594 28.77 40.032C27.842 41.072 27.52 41.728 26.76 42.334C25.99 42.948 25 43.272 23.01 43.678C22.5857 43.7545 22.1725 43.8835 21.78 44.062C21.852 44.126 21.852 44.148 21.966 44.198C22.26 44.366 22.632 44.502 22.936 44.584C23.79 44.792 25.184 45.042 26.654 44.792C28.112 44.542 29.632 43.842 30.936 42.022C31.166 41.71 31.184 41.24 30.998 40.74C30.812 40.252 30.404 39.814 30.124 39.7C29.9491 39.6176 29.7632 39.561 29.572 39.532L29.574 39.53Z" fill="black"/>
</svg>
