<svg width="64" height="64" viewBox="0 0 64 64" fill="none" xmlns="http://www.w3.org/2000/svg">
<path d="M24.665 31H39.2445C43.303 31 46.5 27.566 46.5 23.4905V9.59151C46.5 5.6355 43.184 2.6635 39.2225 2.0035C36.7155 1.586 34.125 1.396 31.629 1.408C29.134 1.4195 26.823 1.632 24.7265 2.0035C18.549 3.094 17.5 5.379 17.5 9.59151V15H32V17H11.888C7.64599 17 3.93099 19.554 2.76949 24.4055C1.42899 29.9655 1.36949 33.365 2.76949 39.1705C3.80699 43.4915 6.28449 46.5 10.527 46.5H15.5V39.976C15.5 35.1575 19.714 31 24.665 31ZM23.746 11.445C22.233 11.445 21.007 10.2055 21.007 8.6725C21.007 7.133 22.2325 5.882 23.746 5.882C25.2535 5.882 26.4855 7.133 26.4855 8.6725C26.485 10.2055 25.253 11.445 23.746 11.445ZM61.1405 24.4055C60.0915 20.1815 58.089 17 53.841 17H48.5V23.4905C48.5 28.5155 44.103 32.5 39.2445 32.5H24.665C20.671 32.5 17.5 36.163 17.5 40.163V54.063C17.5 58.018 20.8725 60.345 24.731 61.48C29.352 62.8385 33.728 63.084 39.2565 61.48C42.931 60.4155 46.5 58.2745 46.5 54.063V48.5H32V46.5H53.841C58.083 46.5 59.6645 43.612 61.1405 39.17C62.664 34.5975 62.5985 30.2705 61.1405 24.4055ZM40.163 52.2085C41.6765 52.2085 42.9025 53.448 42.9025 54.982C42.9025 56.52 41.677 57.7715 40.163 57.7715C38.6555 57.7715 37.424 56.5205 37.424 54.982C37.424 53.448 38.6555 52.2085 40.163 52.2085Z" fill="black"/>
</svg>
