<svg width="73" height="73" viewBox="0 0 73 73" fill="none" xmlns="http://www.w3.org/2000/svg">
<g clip-path="url(#clip0_128_94)">
<path d="M31.9375 6.08337C36.7919 6.08305 41.5483 7.44941 45.6624 10.0261C49.7765 12.6027 53.0821 16.2856 55.2009 20.6532C57.3196 25.0209 58.1659 29.8967 57.6429 34.7229C57.12 39.549 55.2488 44.1304 52.2437 47.9428L63.3518 59.051C63.9059 59.6246 64.2125 60.393 64.2056 61.1905C64.1986 61.988 63.8787 62.7509 63.3148 63.3148C62.7508 63.8788 61.9879 64.1987 61.1904 64.2056C60.3929 64.2125 59.6246 63.9059 59.0509 63.3519L47.9428 52.2437C44.7047 54.7956 40.9034 56.536 36.8559 57.32C32.8085 58.1039 28.6322 57.9086 24.6756 56.7502C20.7189 55.5919 17.0967 53.5042 14.111 50.6612C11.1253 47.8182 8.86283 44.3025 7.51224 40.4073C6.16165 36.5121 5.76215 32.3504 6.34707 28.2694C6.93199 24.1884 8.48436 20.3065 10.8747 16.9475C13.265 13.5884 16.4239 10.8497 20.0879 8.95986C23.752 7.06998 27.8148 6.08373 31.9375 6.08337ZM31.9375 12.1667C26.694 12.1667 21.6652 14.2497 17.9574 17.9574C14.2497 21.6652 12.1667 26.694 12.1667 31.9375C12.1667 37.1811 14.2497 42.2099 17.9574 45.9176C21.6652 49.6254 26.694 51.7084 31.9375 51.7084C37.1811 51.7084 42.2098 49.6254 45.9176 45.9176C49.6253 42.2099 51.7083 37.1811 51.7083 31.9375C51.7083 26.694 49.6253 21.6652 45.9176 17.9574C42.2098 14.2497 37.1811 12.1667 31.9375 12.1667ZM31.9375 15.2084C36.3744 15.2084 40.6295 16.9709 43.7668 20.1082C46.9041 23.2456 48.6667 27.5007 48.6667 31.9375C48.6667 36.3744 46.9041 40.6295 43.7668 43.7668C40.6295 46.9042 36.3744 48.6667 31.9375 48.6667C27.5007 48.6667 23.2455 46.9042 20.1082 43.7668C16.9709 40.6295 15.2083 36.3744 15.2083 31.9375C15.2083 27.5007 16.9709 23.2456 20.1082 20.1082C23.2455 16.9709 27.5007 15.2084 31.9375 15.2084Z" fill="black"/>
</g>
<defs>
<clipPath id="clip0_128_94">
<rect width="73" height="73" fill="white"/>
</clipPath>
</defs>
</svg>
