<svg width="66" height="66" viewBox="0 0 66 66" fill="none" xmlns="http://www.w3.org/2000/svg">
<g clip-path="url(#clip0_128_152)">
<path d="M32.0485 0.478516V6.53677H26.6255V8.13177H32.0485V14.19H33.9625V8.13177H39.38V6.53677H33.9625V0.478516H33.0055H32.0485ZM48.631 6.69902L48.6255 11.1623V15.6255H40.4938V18.1748H48.6255V26.9418H51.4938L51.524 22.5913L51.579 18.2573L55.6077 18.2023L59.6227 18.1748V15.6255H51.502V6.69902H50.0665H48.631ZM14.5118 6.86402V15.6365H6.30025V18.1803H14.5118V26.9528H17.2205V18.1775H25.5062V15.6338H17.2205V6.86402H15.8675H14.5118ZM31.2482 21.3565V31.2373H22.165V34.5043H31.251V44.3933H34.771V34.5043H43.8708V31.2373H34.7682V21.3565H33.0165H31.2482ZM57.981 25.619V31.7268H52.448V33.957H57.981V40.1748H60.4202V33.957H66V31.7268H60.4202V25.6218H59.2598L57.981 25.619ZM5.42575 25.9793V31.9578H0V33.6655H5.42575V39.699H7.26V33.6655H12.76V31.9605H7.17475V25.9765H6.30025L5.42575 25.9793ZM48.6255 38.3983V47.3468H40.3315V49.896H48.6255V58.7428H51.5735V49.8988H59.785V47.3468H51.5735V38.3983H50.1077H48.6255ZM14.3522 38.4203V47.3468H6.2205V49.8988H14.3522V58.6685H17.38V49.8988H25.5062V47.3468H17.38V38.4175H15.8675L14.3522 38.4203ZM31.7212 51.0098L31.7267 54.043V57.068H26.3065V59.301H31.7267V65.5215H34.2788L34.3118 62.4443L34.3585 59.301H39.7733V57.068H34.2733V51.0098H32.9945H31.7212Z" fill="black"/>
</g>
<defs>
<clipPath id="clip0_128_152">
<rect width="66" height="66" fill="white"/>
</clipPath>
</defs>
</svg>
