<svg width="64" height="64" viewBox="0 0 64 64" fill="none" xmlns="http://www.w3.org/2000/svg">
<g clip-path="url(#clip0_128_141)">
<mask id="mask0_128_141" style="mask-type:luminance" maskUnits="userSpaceOnUse" x="0" y="0" width="64" height="64">
<path d="M0 0H64V64H0V0Z" fill="white"/>
</mask>
<g mask="url(#mask0_128_141)">
<path d="M0.60802 22.32C0.60802 22.32 -0.949313 21.1813 0.92002 19.6667L5.28002 15.7253C5.28002 15.7253 6.52535 14.4 7.84535 15.5547L48.0614 46.3333V61.0907C48.0614 61.0907 48.0427 63.4107 45.1014 63.1547L0.60802 22.32Z" fill="black"/>
<path d="M10.976 31.8319L0.607985 41.3573C0.607985 41.3573 -0.458681 42.1573 0.607985 43.5893L5.42132 48.0159C5.42132 48.0159 6.56532 49.2559 8.25332 47.8426L19.2427 39.4213L10.976 31.8319ZM29.1733 31.9093L48.1866 17.2373L48.0613 2.55725C48.0613 2.55725 47.248 -0.648081 44.5413 1.02125L19.2427 24.2933L29.1733 31.9093Z" fill="black"/>
<path d="M45.0987 63.1732C46.2027 64.3146 47.5413 63.9412 47.5413 63.9412L62.3573 56.5626C64.2533 55.2559 63.9867 53.6346 63.9867 53.6346V9.56789C63.9867 7.63189 62.0267 6.96255 62.0267 6.96255L49.184 0.703885C46.3787 -1.04812 44.5413 1.02122 44.5413 1.02122C44.5413 1.02122 46.904 -0.698781 48.0613 2.55722V60.8239C48.0613 61.2239 47.976 61.6159 47.808 61.9706C47.4693 62.6612 46.736 63.3039 44.976 63.0372L45.0987 63.1732Z" fill="black"/>
</g>
</g>
<defs>
<clipPath id="clip0_128_141">
<rect width="64" height="64" fill="white"/>
</clipPath>
</defs>
</svg>
